<?xml version="1.0" encoding="utf-8"?>
<!-- Generator: Adobe Illustrator 16.0.4, SVG Export Plug-In . SVG Version: 6.00 Build 0)  -->
<!DOCTYPE svg PUBLIC "-//W3C//DTD SVG 1.1//EN" "http://www.w3.org/Graphics/SVG/1.1/DTD/svg11.dtd">
<svg version="1.1" id="Calque_1" xmlns="http://www.w3.org/2000/svg" xmlns:xlink="http://www.w3.org/1999/xlink" x="0px" y="0px"
	 width="1000px" height="1000px" viewBox="0 0 1000 1000" enable-background="new 0 0 1000 1000" xml:space="preserve">
<path fill="#FF0000" d="M500.063,998.703c275.785,0,499.354-223.569,499.354-499.354C999.417,223.569,775.848,0,500.063,0
	C224.278,0,0.711,223.569,0.711,499.349C0.711,775.134,224.278,998.703,500.063,998.703"/>
<path fill="#FFFFFF" d="M483.824,806.717l-57.779-31.948c1.269,0.731-2.159-11.8-0.272-10.684
	c17.346,10.335,66.776,39.833,76.429,39.833c11.661,0,33.156-16.52,76.026-40.236l0.498,8.855l-62.118,34.188
	C500.214,816.192,483.824,806.717,483.824,806.717 M775.903,639.527l-0.134-280.74c0,0-0.013-18.928-16.404-28.402l-243.06-140.487
	c0,0-16.392-9.476-32.787-0.012L240.614,330.132c0,0-16.395,9.464-16.387,28.397l0.133,280.743c0,0,0.009,18.933,16.401,28.399
	l185.284,107.098c-0.081-1.363-0.165-2.764-0.258-4.208c-0.576-8.845-1.517-18.934-3.03-25.921
	c-5.85-26.992-16.915-84.276-21.139-98.069c-12.682-41.416-49.595-174.389,5.493-253.458
	c35.271-49.856,104.565-62.19,137.877-46.492c6.197,6.101,5.195,15.689-18.082,15.689c-20.191,0-70.859,18.834-75.722,79.929
	c-4.862,61.097,11.148,89.396,62.678,171.432c6.312,12.613,31.346,51.34,44.174,75.715c12.764,24.266,19.688,49.565,22.624,74.618
	c0.261,2.268,0.494,4.526,0.695,6.787l178.156-102.863C759.512,667.927,775.911,658.461,775.903,639.527"/>
</svg>
