<svg xmlns="http://www.w3.org/2000/svg" shape-rendering="geometricPrecision" viewBox="0 0 1600 1071"><path fill="#f00" d="M1599 4h-471l186 276v247h99v-247l186-276zm-1215 524h-384l1-2h-1v-523h230c86 2 152 71 154 156-2 81-62 150-143 156l142 212h-1l2 1zm804-369c-2-85-68-154-154-156h-230v523h99v-211h131c86-2 152-71 154-156m-408 176v-331h-384v331c2 107 84 189 191 191 110-2 189-87 193-191z"/><path fill="#fff" d="M1219 544l380 1v99l-111 104 67 62c30 28 45 62 45 102 0 88-72 159-166 159h-37c-72 0-181-30-181-187l271 1c-3-5-6-9-10-13l-80-74v-97l56-55h-234v-102zm-273 273v-132l152-139v-1h99v524h-99v-390l-152 138zm-678-87l-259 1v-1c0-150 87-185 164-185h38c99 0 174 70 174 158 0 41-16 75-47 103l-185 162h243v101h-396v-99l256-227c5-4 9-8 12-13zm390 334c144 0 260-116 260-260s-116-261-260-261-260 117-260 261 116 260 260 260z"/><polygon fill="#363636" points="1197,447 1179,494 1185,494 1202,447"/><path fill="#fff" d="M1278 447v31c-1 2-4 4-8 4-3 0-6-2-7-4-1-1-1-3-1-8v-23h-8v23c0 6 0 8 1 11 2 5 8 8 15 8s12-3 15-7c1-3 1-5 1-12v-23h-8zm-63 0v41h8v-18h17v18h8v-41h-8v16h-17v-16h-8zm-54 11v-10h-7v10h-4v5h4v20c1 2 2 4 4 4 1 1 1 1 4 1h6v-6h-3c-1 0-2 0-3-1 0 0-1-1-1-3v-15h6v-5h-6zm-12 9c-1-6-6-10-13-10s-12 4-12 10c0 2 1 5 4 6 2 1 5 2 10 3 4 1 5 2 5 3 0 3-3 4-6 4-4 0-6-1-7-5h-7c1 7 6 11 14 11s13-4 13-10c0-3-1-5-3-7-2-1-4-1-8-2s-5-1-7-2c0 0-1-1-1-2 0-2 2-3 5-3 4 0 5 1 6 4h7zm-49 3c1-5 3-7 7-7s6 2 7 7h-14zm22 5c-1-11-6-18-15-18s-15 7-15 16 6 16 15 16c7 0 12-4 14-10h-7c-2 2-4 4-7 4-4 0-7-3-7-8h22zm-47-12c4 0 7 4 7 10s-3 10-7 10-7-4-7-10 3-10 7-10m-14-5v40h7v-14c3 3 5 5 9 5 7 0 13-7 13-16s-6-16-13-16c-4 0-7 2-9 5v-4h-7zm-13 18c0 3 0 4-2 5-1 1-3 2-5 2-4 0-6-2-6-4s2-4 8-5c3-1 4-1 5-2v4zm-12-9c1-3 3-5 6-5 4 0 6 2 6 4s-1 3-5 3c-4 1-8 2-10 3-3 1-5 4-5 7 0 6 5 10 11 10 3 0 6-1 9-4l1 3h7c-1-2-1-3-1-6v-13c0-3 0-5-1-6-1-4-6-6-12-6-5 0-8 2-10 4-2 1-2 3-3 6h7zm-27-4c5 0 7 4 7 10s-2 10-7 10c-4 0-7-4-7-10s3-10 7-10m7-16v14c-3-2-6-4-9-4-7 0-13 7-13 16s6 16 14 16c3 0 5-1 8-5v4h8v-41h-8zm-26 11h-7v17c0 2-1 4-1 5-2 1-3 2-5 2-3 0-4-1-5-3 0-1-1-2-1-5v-16h-7v17c0 4 0 5 1 7 1 4 4 7 9 7 3 0 6-2 9-4v3h7v-30zm-55 23v-11h13c3 1 4 3 4 6 0 2-1 4-3 5h-14zm0-17v-11h8c2 0 4 1 4 1 3 1 4 2 4 4s-1 4-3 5l-5 1h-8zm-8 24h19c4 0 6-1 8-2 4-1 6-5 6-10s-3-9-9-10c5-1 8-4 8-9 0-3-2-6-5-8-2-1-5-2-8-2h-19v41zm339-78c1-5 3-7 7-7s6 2 6 6c0 2-1 3-3 4-1 1-3 1-6 1v6c1-1 2-1 3-1 5 0 8 3 8 7s-3 6-8 6-7-2-8-7h-7c0 8 6 14 15 14s15-5 15-13c0-5-3-9-9-10 5-1 8-4 8-8 0-6-6-11-14-11-5 0-9 2-11 5-2 2-3 4-3 8h7zm-17-13h-7c-1 5-5 8-12 8v5h11v28h8v-41zm-40 29h16v-7h-16v7zm-10-29h-6c-1 5-5 8-12 8v5h11v28h7v-41zm-28 0h-7c-1 5-4 8-11 8v5h10v28h8v-41zm-55 11v30h7v-15c0-6 3-9 9-9h1v-6c-1-1-2-1-2-1-3 0-6 2-8 5v-4h-7zm-26 12c1-5 3-7 7-7s7 2 7 7h-14zm22 5c0-11-6-18-15-18s-14 7-14 16 6 16 15 16c6 0 12-4 14-10h-8c-1 2-4 4-7 4-4 0-6-3-7-8h22zm-47-12c4 0 7 4 7 10s-3 10-7 10-7-4-7-10 3-10 7-10m-14-16v41h7v-3c3 3 5 4 9 4 7 0 13-7 13-16s-6-16-13-16c-4 0-7 2-9 4v-14h-7zm-20 16c5 0 8 4 8 10s-3 10-8 10-8-4-8-10 4-10 8-10m0-6c-9 0-15 7-15 16s6 16 15 16 16-7 16-16-7-16-16-16m-22 1v-10h-8v10h-4v5h4v15c0 3 1 4 1 5 0 2 1 4 3 4 1 1 2 1 5 1h5v-6h-3c-1 0-2 0-2-1-1 0-1-1-1-3v-15h6v-5h-6zm-19 19c-1 4-3 6-6 6-5 0-7-4-7-10s2-10 7-10c3 0 5 2 6 5h7c-2-7-7-11-13-11-9 0-15 7-15 16s6 16 15 16c7 0 12-5 13-12h-7zm-43-24c6 0 11 6 11 14 0 9-5 15-11 15-7 0-12-6-12-15 0-8 5-14 12-14m0-7c-12 0-20 9-20 21 0 13 8 22 20 22 11 0 19-9 19-22 0-12-8-21-19-21z"/><path fill="#363636" d="M639 819c1 12 7 19 17 19 7 0 12-3 15-9h17c-4 14-16 22-32 22-20 0-34-15-34-36s13-36 33-36c21 0 34 15 34 40h-50zm32-11c-1-10-7-15-16-15-8 0-14 5-15 15h31zm-45-129v10c7-8 12-12 20-12 9 0 17 5 21 13 2 3 3 8 3 14v43h-17v-39c0-5 0-8-2-10-2-4-6-6-10-6-9 0-15 7-15 17v38h-17v-68h17zm-24 22c0 28-18 48-44 48-27 0-45-20-45-49 0-28 19-48 45-48s44 20 44 49zm-70-1c0 21 10 34 26 34 15 0 26-13 26-33s-11-33-26-33c-16 0-26 13-26 32zm15 81v11h-13v35c0 5 1 6 2 8 1 1 3 2 6 2h6v12h-12c-6 0-8 0-10-1-5-2-7-5-8-10-1-2-1-5-1-11v-35h-9v-11h9v-22h17v22h13zm24-25v35c6-8 12-12 20-12 9 0 17 5 21 11 2 5 3 10 3 18v41h-17v-38c0-11-4-17-12-17-5 0-9 3-12 6-2 3-3 6-3 13v36h-17v-93h17zm183 165c1 12 7 19 17 19 6 0 11-3 14-9h18c-4 14-17 22-32 22-20 0-35-15-35-36s14-36 33-36c21 0 34 15 35 40h-50zm32-11c-1-10-7-15-16-15s-14 5-16 15h32zm-56-27v60c0 11-1 14-4 19-6 8-15 12-28 12-10 0-19-3-24-8-4-3-6-7-7-12h18c1 5 5 8 12 8s12-3 14-7c1-3 2-5 2-12v-6c-5 6-11 9-19 9-19 0-31-13-31-32s12-33 30-33c9 0 17 4 21 10v-8h16zm-49 31c0 11 6 19 16 19s16-7 16-19c0-11-6-19-16-19s-16 7-16 19zm-24-56v93h-17v-8c-8 8-12 10-20 10-18 0-30-15-30-35 0-21 12-37 29-37 7 0 14 4 21 10v-33h17zm-50 59c0 13 7 23 17 23s16-10 16-23-6-22-16-22-17 9-17 22zm-90-59h69v15h-51v22h44v14h-44v28h52v14h-70v-93z"/></svg>